<svg width="263" height="275" viewBox="0 0 263 275" fill="none" xmlns="http://www.w3.org/2000/svg">
<mask id="mask0_17_10663" style="mask-type:luminance" maskUnits="userSpaceOnUse" x="0" y="0" width="263" height="275">
<path d="M0.333496 0.729248H262.235V274.729H0.333496V0.729248Z" fill="white"/>
</mask>
<g mask="url(#mask0_17_10663)">
<path d="M131.234 0.880371L0.59375 48.7137V222.87L131.234 275.052L261.875 222.87V48.7137L259.109 47.7033L131.234 0.880371ZM131.234 9.8387L253.448 54.5991V217.162L131.234 265.99L9.02083 217.162V54.5991L131.234 9.8387ZM131.234 13.7762C130.677 13.7762 130.135 13.8856 129.62 14.0991C129.104 14.3127 128.651 14.6147 128.255 15.0106C127.859 15.4064 127.552 15.8595 127.339 16.3752C127.125 16.8908 127.021 17.4272 127.021 17.9897C127.021 18.547 127.125 19.0835 127.339 19.5991C127.552 20.1147 127.859 20.5679 128.255 20.9637C128.651 21.3595 129.104 21.6616 129.62 21.8752C130.135 22.0887 130.677 22.1981 131.234 22.1981C131.792 22.1981 132.328 22.0887 132.844 21.8752C133.365 21.6616 133.818 21.3595 134.214 20.9637C134.609 20.5679 134.911 20.1147 135.125 19.5991C135.339 19.0835 135.448 18.547 135.448 17.9897C135.448 17.4272 135.339 16.8908 135.125 16.3752C134.911 15.8595 134.609 15.4064 134.214 15.0106C133.818 14.6147 133.365 14.3127 132.844 14.0991C132.328 13.8856 131.792 13.7762 131.234 13.7762ZM131.234 30.6147C130.677 30.6147 130.135 30.7189 129.62 30.9325C129.104 31.146 128.651 31.4533 128.255 31.8491C127.859 32.2397 127.552 32.6981 127.339 33.2137C127.125 33.7293 127.021 34.2658 127.021 34.8231C127.021 35.3804 127.125 35.9168 127.339 36.4325C127.552 36.9481 127.859 37.4064 128.255 37.797C128.651 38.1929 129.104 38.5002 129.62 38.7137C130.135 38.9272 130.677 39.0314 131.234 39.0314C131.792 39.0314 132.328 38.9272 132.844 38.7137C133.365 38.5002 133.818 38.1929 134.214 37.797C134.609 37.4064 134.911 36.9481 135.125 36.4325C135.339 35.9168 135.448 35.3804 135.448 34.8231C135.448 34.2658 135.339 33.7293 135.125 33.2137C134.911 32.6981 134.609 32.2397 134.214 31.8491C133.818 31.4533 133.365 31.146 132.844 30.9325C132.328 30.7189 131.792 30.6147 131.234 30.6147ZM131.234 47.4481C130.677 47.4481 130.135 47.5575 129.62 47.771C129.104 47.9845 128.651 48.2866 128.255 48.6825C127.859 49.0783 127.552 49.5314 127.339 50.047C127.125 50.5627 127.021 51.0991 127.021 51.6564C127.021 52.2189 127.125 52.7554 127.339 53.271C127.552 53.7866 127.859 54.2397 128.255 54.6356C128.651 55.0314 129.104 55.3335 129.62 55.547C130.135 55.7606 130.677 55.87 131.234 55.87C131.792 55.87 132.328 55.7606 132.844 55.547C133.365 55.3335 133.818 55.0314 134.214 54.6356C134.609 54.2397 134.911 53.7866 135.125 53.271C135.339 52.7554 135.448 52.2189 135.448 51.6564C135.448 51.0991 135.339 50.5627 135.125 50.047C134.911 49.5314 134.609 49.0783 134.214 48.6825C133.818 48.2866 133.365 47.9845 132.844 47.771C132.328 47.5575 131.792 47.4481 131.234 47.4481ZM131.234 64.2866C130.677 64.2866 130.135 64.3908 129.62 64.6043C129.104 64.8179 128.651 65.1252 128.255 65.5158C127.859 65.9116 127.552 66.37 127.339 66.8856C127.125 67.4012 127.021 67.9377 127.021 68.495C127.021 69.0522 127.125 69.5887 127.339 70.1043C127.552 70.62 127.859 71.0731 128.255 71.4689C128.651 71.8647 129.104 72.1668 129.62 72.3804C130.135 72.5939 130.677 72.7033 131.234 72.7033C131.792 72.7033 132.328 72.5939 132.844 72.3804C133.365 72.1668 133.818 71.8647 134.214 71.4689C134.609 71.0731 134.911 70.62 135.125 70.1043C135.339 69.5887 135.448 69.0522 135.448 68.495C135.448 67.9377 135.339 67.4012 135.125 66.8856C134.911 66.37 134.609 65.9116 134.214 65.5158C133.818 65.1252 133.365 64.8179 132.844 64.6043C132.328 64.3908 131.792 64.2866 131.234 64.2866ZM101.734 71.7241L34.3073 98.1564V155.474L40.125 153.073L101.734 127.74V71.7241ZM169.161 79.271V189.198L177.797 192.641L178.193 192.797L193.839 199.052L194.026 199.125L194.234 199.209L209.88 205.459L210.281 205.62L219.734 209.396V98.0939L169.161 79.271ZM131.234 81.12C130.677 81.12 130.135 81.2293 129.62 81.4429C129.104 81.6564 128.651 81.9585 128.255 82.3543C127.859 82.7502 127.552 83.2033 127.339 83.7189C127.125 84.2345 127.021 84.771 127.021 85.3283C127.021 85.8856 127.125 86.4272 127.339 86.9429C127.552 87.4585 127.859 87.9116 128.255 88.3075C128.651 88.6981 129.104 89.0054 129.62 89.2189C130.135 89.4325 130.677 89.5366 131.234 89.5366C131.792 89.5366 132.328 89.4325 132.844 89.2189C133.365 89.0054 133.818 88.6981 134.214 88.3075C134.609 87.9116 134.911 87.4585 135.125 86.9429C135.339 86.4272 135.448 85.8856 135.448 85.3283C135.448 84.771 135.339 84.2345 135.125 83.7189C134.911 83.2033 134.609 82.7502 134.214 82.3543C133.818 81.9585 133.365 81.6564 132.844 81.4429C132.328 81.2293 131.792 81.12 131.234 81.12ZM93.3073 84.0731V122.11L42.7344 142.906V103.891L93.3073 84.0731ZM177.589 91.396L211.302 103.943V196.964L197.37 191.391H197.359L196.964 191.235L180.958 184.834L180.922 184.823L177.589 183.49V91.396ZM131.234 97.9585C130.677 97.9585 130.135 98.0627 129.62 98.2762C129.104 98.4897 128.651 98.797 128.255 99.1877C127.859 99.5835 127.552 100.037 127.339 100.552C127.125 101.068 127.021 101.61 127.021 102.167C127.021 102.724 127.125 103.261 127.339 103.776C127.552 104.292 127.859 104.745 128.255 105.141C128.651 105.537 129.104 105.839 129.62 106.052C130.135 106.266 130.677 106.375 131.234 106.375C131.792 106.375 132.328 106.266 132.844 106.052C133.365 105.839 133.818 105.537 134.214 105.141C134.609 104.745 134.911 104.292 135.125 103.776C135.339 103.261 135.448 102.724 135.448 102.167C135.448 101.61 135.339 101.068 135.125 100.552C134.911 100.037 134.609 99.5835 134.214 99.1877C133.818 98.797 133.365 98.4897 132.844 98.2762C132.328 98.0627 131.792 97.9585 131.234 97.9585ZM131.234 114.792C130.677 114.792 130.135 114.901 129.62 115.115C129.104 115.328 128.651 115.63 128.255 116.026C127.859 116.422 127.552 116.875 127.339 117.391C127.125 117.906 127.021 118.443 127.021 119C127.021 119.557 127.125 120.094 127.339 120.61C127.552 121.125 127.859 121.583 128.255 121.979C128.651 122.37 129.104 122.677 129.62 122.891C130.135 123.104 130.677 123.208 131.234 123.208C131.792 123.208 132.328 123.104 132.844 122.891C133.365 122.677 133.818 122.37 134.214 121.979C134.609 121.583 134.911 121.125 135.125 120.61C135.339 120.094 135.448 119.557 135.448 119C135.448 118.443 135.339 117.906 135.125 117.391C134.911 116.875 134.609 116.422 134.214 116.026C133.818 115.63 133.365 115.328 132.844 115.115C132.328 114.901 131.792 114.792 131.234 114.792ZM131.234 131.63C130.677 131.63 130.135 131.735 129.62 131.948C129.104 132.162 128.651 132.464 128.255 132.86C127.859 133.255 127.552 133.708 127.339 134.224C127.125 134.74 127.021 135.276 127.021 135.839C127.021 136.396 127.125 136.932 127.339 137.448C127.552 137.964 127.859 138.417 128.255 138.813C128.651 139.209 129.104 139.511 129.62 139.724C130.135 139.938 130.677 140.047 131.234 140.047C131.792 140.047 132.328 139.938 132.844 139.724C133.365 139.511 133.818 139.209 134.214 138.813C134.609 138.417 134.911 137.964 135.125 137.448C135.339 136.932 135.448 136.396 135.448 135.839C135.448 135.276 135.339 134.74 135.125 134.224C134.911 133.708 134.609 133.255 134.214 132.86C133.818 132.464 133.365 132.162 132.844 131.948C132.328 131.735 131.792 131.63 131.234 131.63ZM131.234 148.464C130.677 148.464 130.135 148.568 129.62 148.781C129.104 148.995 128.651 149.302 128.255 149.698C127.859 150.089 127.552 150.547 127.339 151.063C127.125 151.578 127.021 152.115 127.021 152.672C127.021 153.229 127.125 153.766 127.339 154.281C127.552 154.797 127.859 155.255 128.255 155.646C128.651 156.042 129.104 156.349 129.62 156.563C130.135 156.776 130.677 156.88 131.234 156.88C131.792 156.88 132.328 156.776 132.844 156.563C133.365 156.349 133.818 156.042 134.214 155.646C134.609 155.255 134.911 154.797 135.125 154.281C135.339 153.766 135.448 153.229 135.448 152.672C135.448 152.115 135.339 151.578 135.125 151.063C134.911 150.547 134.609 150.089 134.214 149.698C133.818 149.302 133.365 148.995 132.844 148.781C132.328 148.568 131.792 148.464 131.234 148.464ZM131.125 165.297L129.672 165.604L129.276 165.761L129.141 165.906L129.036 165.917L128.797 166.292L126.771 168.578L127.531 172.271L128.74 172.839L129.672 173.412L130.057 173.568L130.271 173.552L130.953 173.875L132.411 173.568L132.797 173.412L132.865 173.339L133.828 173.255L135.818 170.057L134.453 166.542L133.193 165.761L132.797 165.604L131.927 165.677L131.125 165.297ZM115.083 171.714L113.625 172.005L113.234 172.162L110.729 174.985L111.49 178.682L114.911 180.276L116.37 179.979L116.755 179.823L119.266 177.005L118.5 173.313L115.083 171.714ZM148.839 172.005L145.078 172.328L143.078 175.526L144.453 179.042L145.714 179.823L146.099 179.979L149.87 179.667L151.859 176.464L150.495 172.953L149.234 172.162L148.839 172.005ZM99.0365 178.115L97.5833 178.417L97.1927 178.573L94.6875 181.396L95.4479 185.084L98.8698 186.688L100.318 186.391L100.714 186.235L103.224 183.406L102.458 179.719L99.0365 178.115ZM164.88 178.417L161.12 178.729L159.12 181.938L160.495 185.448L161.755 186.235L162.151 186.391L165.911 186.073L167.901 182.875L166.536 179.354L165.276 178.573L164.88 178.417ZM82.9896 184.526L81.5417 184.823L81.1458 184.99L78.6458 187.807L79.401 191.5L82.8281 193.099L84.276 192.797L84.6719 192.641L87.1719 189.823L86.4167 186.13L82.9896 184.526ZM66.9479 190.938L65.5 191.235L65.1042 191.391L62.6042 194.209L63.3594 197.912L66.7865 199.505L68.2344 199.209L68.6302 199.052L71.1302 196.235L70.375 192.531L66.9479 190.938ZM50.9063 197.344L49.4583 197.646L49.0625 197.802L46.5625 200.625L47.3177 204.313L50.7448 205.917L52.1927 205.62L52.5885 205.459L55.0885 202.636L54.3333 198.948L50.9063 197.344ZM34.8646 203.755L33.4115 204.052L33.0208 204.209L30.5104 207.037L31.276 210.724L34.7031 212.328L36.151 212.026L36.5469 211.87L39.0469 209.047L38.2917 205.36L34.8646 203.755ZM229.057 204.052L225.286 204.37L223.297 207.568L224.661 211.089L225.922 211.87L226.318 212.026L230.078 211.714L232.078 208.505L230.703 204.995L229.443 204.209L229.057 204.052ZM18.8229 210.167L17.3646 210.464L16.9792 210.62L14.4688 213.438L15.2344 217.13L18.651 218.735L20.1094 218.438L20.5052 218.281L23.0052 215.459L22.25 211.761L18.8229 210.167ZM245.099 210.464L241.328 210.776L239.339 213.979L240.703 217.49L241.964 218.281L242.359 218.438L246.12 218.115L248.12 214.917L246.745 211.406L245.484 210.62L245.099 210.464Z" fill="black"/>
</g>
</svg>
